<svg xmlns="http://www.w3.org/2000/svg" width="14" height="14" viewBox="0 0 14 14">
    <g fill="#BBC7D2" fill-rule="evenodd">
        <path d="M2.432 8.589l6.225-6.225a.198.198 0 0 1 .28.002l2.546 2.546c.078.078.08.203.003.28L5.26 11.417 2.432 8.59zM4.553 12.125l-.316.316c-.142.142-2.144.64-3.218.9a.422.422 0 0 1-.51-.51c.259-1.076.758-3.077.9-3.219l.316-.316 2.828 2.829zM9.644 1.66c-.077-.079-.083-.2-.011-.272l.96-.96c.179-.179.525-.124.773.124l1.93 1.93c.249.25.304.595.125.775l-.96.96c-.072.071-.193.065-.271-.012L9.644 1.659z"/>
    </g>
</svg>
