<svg xmlns="http://www.w3.org/2000/svg" width="14" height="14" viewBox="0 0 14 14">
    <g fill="none" fill-rule="evenodd" stroke="#ABB1B6" stroke-linejoin="round" stroke-width="1.2">
        <path d="M6.87.677c-2.612 0-4.737 2.09-4.737 4.656 0 .67.138 1.309.414 1.9 1.184 2.547 3.456 5.238 4.124 6.001a.267.267 0 0 0 .399 0c.668-.763 2.94-3.453 4.125-6a4.471 4.471 0 0 0 .414-1.9c0-2.568-2.125-4.657-4.738-4.657z"/>
        <path d="M4.93 5.459a1.941 1.941 0 1 1 3.882 0 1.941 1.941 0 0 1-3.882 0z"/>
    </g>
</svg>
