<svg xmlns="http://www.w3.org/2000/svg" width="22" height="22" viewBox="0 0 22 22">
    <g fill="none" fill-rule="evenodd">
        <path fill="#E06A46" d="M4.221 22C3.001 22 2 21.033 2 19.85V2.15C2 .966 3 0 4.221 0h10.432c.18 0 .352.072.476.199l4.693 4.825a.617.617 0 0 1 .178.433V19.85C20 21.033 19 22 17.779 22H4.22z"/>
        <path fill="#FFF" stroke="#E06A46" stroke-linejoin="round" stroke-width="1.4" d="M19 6h-4.326A.676.676 0 0 1 14 5.326V1"/>
        <path fill="#FFF" d="M11.079 12.608l-.9.015V9.815h.9c1.124 0 1.7.46 1.7 1.367 0 .908-.548 1.411-1.7 1.426M11.247 8H8v9h2.235v-2.606l.857-.015c2.517 0 3.908-1.153 3.908-3.254C15 9.267 13.706 8 11.247 8"/>
    </g>
</svg>
