<svg xmlns="http://www.w3.org/2000/svg" width="22" height="22" viewBox="0 0 22 22">
    <g fill="none" fill-rule="evenodd">
        <path fill="#E54E4E" d="M4.221 22C3.001 22 2 21.033 2 19.85V2.15C2 .966 3 0 4.221 0h10.432c.18 0 .352.072.476.199l4.693 4.825a.617.617 0 0 1 .178.433V19.85C20 21.033 19 22 17.779 22H4.22z"/>
        <path fill="#FFF" d="M15 14.5c-.059 0-.162.008-.304.024.39.264.704.45.841.48C16 15 16 14.906 16 14.682c-.052-.11-.26-.182-1-.182m.501 1.5c-.448 0-1.372-.616-2.21-1.26-1.044.196-2.367.507-3.432.927-1.026 2.092-2.43 3.334-3.36 3.334-.72 0-1.499-.444-1.499-1.161 0-.987 1.055-1.487 2.65-2.244.35-.165.73-.345 1.127-.543.11-.055.225-.109.342-.16.144-.324.28-.674.407-1.052.262-.786.495-1.484.693-2.088-.81-1.054-1.218-1.959-1.218-2.705C9 7.355 9.816 7 10.5 7c.9 0 1.5.34 1.5 2 0 .39-.201 1.123-.662 2.545.296.351.635.72 1.016 1.101.293.293.733.668 1.196 1.033.708-.12 1.249-.179 1.45-.179.65 0 2 0 2 1.182 0 .601-.26 1.318-1.499 1.318M6 17.84c.02.025.214.16.5.16.284 0 1.026-.505 1.777-1.594l-.198.094c-1.022.484-2.08.985-2.08 1.34m4.977-5.189l-.502 1.508c-.028.088-.06.176-.09.263.627-.199 1.282-.365 1.898-.5a14.281 14.281 0 0 1-.636-.568c-.238-.24-.463-.474-.67-.703M11.001 9c0-1-.148-1-.501-1-.176 0-.5 0-.5 1.047 0 .392.21.91.602 1.515C10.859 9.738 11 9.21 11 9"/>
        <path fill="#FFF" stroke="#E54E4E" stroke-linejoin="round" stroke-width="1.4" d="M19 6h-4.326A.676.676 0 0 1 14 5.326V1"/>
    </g>
</svg>
