<?xml version="1.0" encoding="iso-8859-1"?>
<!-- Generator: Adobe Illustrator 19.0.0, SVG Export Plug-In . SVG Version: 6.00 Build 0)  -->
<svg version="1.1" id="Capa_1" xmlns="http://www.w3.org/2000/svg" xmlns:xlink="http://www.w3.org/1999/xlink" x="0px" y="0px"
	 viewBox="0 0 512.002 512.002" style="enable-background:new 0 0 512.002 512.002;" xml:space="preserve">
<g>
	<g>
		<path d="M440.603,210.23c-3.372-4.382-6.911-8.525-10.52-12.315c-21.176-22.221-47.257-36.578-75.426-41.519
			c-5.44-0.955-10.623,2.682-11.577,8.122c-0.954,5.44,2.682,10.623,8.122,11.577c23.927,4.197,46.197,16.513,64.4,35.615
			c3.126,3.283,6.205,6.889,9.152,10.718c1.97,2.56,4.935,3.902,7.932,3.902c2.129,0,4.275-0.677,6.092-2.076
			C443.154,220.885,443.972,214.606,440.603,210.23z"/>
	</g>
</g>
<g>
	<g>
		<path d="M456.851,236.2c-0.089-0.195-0.185-0.394-0.283-0.589c-2.471-4.94-8.467-6.922-13.406-4.452
			c-4.938,2.469-6.931,8.491-4.466,13.43c1.691,3.645,5.303,5.792,9.076,5.792c1.398,0,2.819-0.295,4.173-0.917
			C456.963,247.156,459.159,241.217,456.851,236.2z" />
	</g>
</g>
<g>
	<g>
		<path d="M500.759,308.53c-4.1-8.6-10.89-22.842-11.011-27.554c11.694-28.823,7.429-60.719-12.048-89.897
			c-29.954-44.874-91.345-77.445-145.974-77.445c-18.197,0-36.141,2.725-53.363,8.085h-4.941c-1.263-3.505-2.694-6.957-4.286-10.335
			l28.517-28.514c1.875-1.876,2.929-4.419,2.929-7.071s-1.054-5.196-2.929-7.071l-42.64-42.637
			c-3.906-3.905-10.236-3.905-14.143,0.001l-28.513,28.514c-3.376-1.591-6.828-3.022-10.336-4.285v-40.32c0-5.523-4.478-10-10-10
			h-60.299c-5.522,0-10,4.477-10,10v40.32c-3.509,1.263-6.96,2.694-10.337,4.285L82.873,26.092
			c-1.875-1.876-4.419-2.929-7.071-2.929s-5.195,1.054-7.071,2.929L26.094,68.728c-3.905,3.905-3.905,10.237,0,14.142l28.514,28.514
			c-1.592,3.377-3.022,6.828-4.286,10.336H10c-5.523,0-10,4.477-10,10v60.299c0,5.523,4.477,10,10,10h40.32
			c1.264,3.51,2.695,6.961,4.285,10.337l-28.514,28.515c-3.905,3.905-3.905,10.237,0,14.142l42.637,42.637
			c3.906,3.906,10.236,3.906,14.143,0.001l28.514-28.512c3.376,1.591,6.828,3.022,10.338,4.286v40.318c0,5.523,4.478,10,10,10
			h23.203c6.992,40.578,27.756,77.493,59.106,104.757c0.317,0.988,1.242,5.617-2.73,19.433c-3.095,10.763-7.844,22.721-12.033,33.27
			c-2.805,7.061-5.227,13.159-6.691,17.771c-0.965,3.04-0.423,6.358,1.461,8.932c1.883,2.574,4.881,4.095,8.07,4.095h142.745
			c4.69,0,11.133-2.101,15.189-12.107c1.764-4.353,2.917-9.592,4.137-15.139c1.188-5.403,3.973-18.056,6.742-19.586
			c0,0,0.162-0.028,0.554,0.034c0.514,0.081,1.033,0.121,1.553,0.121c14.949,0,27.164,0.678,37.94,1.275
			c31.608,1.752,50.689,2.812,67.426-21.298c8.512-12.262,7.548-30.145,6.527-49.077c-0.525-9.757-1.068-19.829-0.103-28.201
			c1.744-1.719,6.116-4.721,8.855-6.602c9.426-6.473,18.328-12.587,18.328-21.881C512.002,332.473,507.729,323.152,500.759,308.53z
			 M141.723,303.741v-37.586c0-4.456-2.949-8.373-7.229-9.608c-7.01-2.021-13.806-4.839-20.201-8.374
			c-3.9-2.156-8.756-1.471-11.909,1.681L75.8,276.436l-28.495-28.495l26.584-26.584c3.15-3.151,3.837-8.007,1.682-11.907
			c-3.534-6.395-6.353-13.193-8.378-20.206c-1.236-4.279-5.153-7.225-9.607-7.225H20V141.72h37.587c4.455,0,8.373-2.947,9.607-7.227
			c2.022-7.006,4.841-13.802,8.377-20.201c2.156-3.901,1.471-8.757-1.681-11.908L47.307,75.8l28.495-28.495l26.582,26.583
			c3.151,3.152,8.01,3.837,11.907,1.682c6.402-3.537,13.199-6.355,20.203-8.375c4.28-1.235,7.229-5.153,7.229-9.608V19.999h40.299
			v37.587c0,4.455,2.947,8.374,7.229,9.608c7.006,2.021,13.802,4.838,20.2,8.374c3.899,2.156,8.755,1.471,11.908-1.681
			l26.583-26.583L276.439,75.8l-26.586,26.583c-3.15,3.151-3.837,8.006-1.682,11.907c3.542,6.412,6.359,13.208,8.375,20.2
			c1.233,4.282,5.152,7.231,9.608,7.231h13.771c0.024,0,0.048,0,0.071,0h23.75v40.299h-37.588c-4.454,0-8.372,2.946-9.607,7.226
			c-2.024,7.01-4.843,13.808-8.379,20.203c-2.156,3.901-1.471,8.758,1.681,11.91l26.586,26.583l-28.495,28.495l-26.583-26.582
			c-3.152-3.151-8.009-3.837-11.908-1.681c-6.398,3.536-13.195,6.354-20.202,8.374c-4.281,1.235-7.229,5.153-7.229,9.608v37.586
			H141.723z M482.352,344.932c-8.607,5.912-16.042,11.017-17.138,18.742c-1.505,10.594-0.874,22.302-0.264,33.625
			c0.757,14.046,1.615,29.967-2.986,36.596c-9.95,14.333-18.557,14.468-49.888,12.733c-10.338-0.574-23.166-1.285-38.374-1.306
			c-5.845-0.694-15.725,0.408-22.319,13.225c-3.35,6.51-5.149,14.69-6.737,21.909c-0.798,3.627-1.918,8.722-2.969,11.543H216.501
			c0.438-1.107,0.892-2.248,1.355-3.416c14.403-36.27,23.526-62.872,9.641-74.881c-27.171-23.497-45.453-55.114-52.241-89.961
			h16.766c5.522,0,10-4.477,10-10v-40.319c3.51-1.263,6.96-2.694,10.338-4.285l28.513,28.512c3.906,3.905,10.236,3.904,14.143,0
			l42.638-42.637c1.875-1.876,2.929-4.419,2.929-7.071c0-2.652-1.054-5.196-2.929-7.071l-28.516-28.513
			c1.591-3.376,3.023-6.829,4.287-10.338h40.322c5.522,0,10-4.477,10-10v-58.18c2.652-0.131,5.313-0.204,7.98-0.204
			c47.649,0,103.253,29.469,129.339,68.548c11.18,16.748,21.977,42.802,9.929,71.811c-3.924,9.448,1.894,22.55,11.711,43.143
			c3.178,6.665,7.778,16.315,8.997,20.823C489.637,339.929,485.194,342.98,482.352,344.932z"/>
	</g>
</g>
<g>
	<g>
		<path d="M161.872,93.261l-0.349,0.002c-5.522,0-10,4.477-10,10s4.478,10,10,10l0.349-0.002c5.522,0,10-4.477,10-10
			C171.872,97.738,167.394,93.261,161.872,93.261z"/>
	</g>
</g>
<g>
	<g>
		<path d="M144.631,104.948c-2.47-4.938-8.479-6.941-13.417-4.47c-23.408,11.709-37.95,35.233-37.95,61.393
			c0,20.267,8.895,39.391,24.403,52.469c1.876,1.583,4.165,2.355,6.441,2.355c2.846,0,5.672-1.208,7.649-3.553
			c3.561-4.222,3.025-10.531-1.197-14.091c-10.991-9.27-17.296-22.821-17.296-37.18c0-18.537,10.307-35.207,26.897-43.506
			C145.1,115.894,147.101,109.887,144.631,104.948z"/>
	</g>
</g>
<g>
	<g>
		<path d="M161.873,123.262c-21.289,0-38.609,17.32-38.609,38.609s17.32,38.609,38.609,38.609
			c21.287,0.001,38.606-17.32,38.606-38.609S183.161,123.262,161.873,123.262z M161.872,180.479
			c-10.262,0.001-18.609-8.347-18.609-18.609c0-10.261,8.348-18.609,18.609-18.609c10.26,0,18.606,8.348,18.606,18.609
			C180.478,172.132,172.131,180.479,161.872,180.479z"/>
	</g>
</g>
<g>
</g>
<g>
</g>
<g>
</g>
<g>
</g>
<g>
</g>
<g>
</g>
<g>
</g>
<g>
</g>
<g>
</g>
<g>
</g>
<g>
</g>
<g>
</g>
<g>
</g>
<g>
</g>
<g>
</g>
</svg>
