<svg xmlns="http://www.w3.org/2000/svg" width="26" height="26" viewBox="0 0 26 26">
    <g fill="none" fill-rule="evenodd">
        <circle cx="13" cy="13" r="13" fill="#EFAAA7"/>
        <path fill="#FFF" d="M14.184 13l3.19-3.19c.146-.146.263-.658-.131-1.053-.395-.394-.908-.277-1.053-.131L13 11.816l-3.19-3.19c-.146-.146-.658-.263-1.053.131-.394.395-.276.907-.131 1.053l3.19 3.19-3.19 3.19c-.145.145-.263.658.131 1.053.395.394.908.276 1.053.131l3.19-3.19 3.19 3.19c.146.145.658.263 1.053-.131.394-.395.276-.908.131-1.053L14.184 13z"/>
    </g>
</svg>
