<svg xmlns="http://www.w3.org/2000/svg" width="26" height="26" viewBox="0 0 26 26">
    <g fill="none" fill-rule="evenodd">
        <path stroke="#F2AA33" stroke-linecap="round" stroke-linejoin="round" stroke-width="1.2" d="M4.02 11.87c-.14-.646.496-1.36.505-1.995.01-.656-.6-1.387-.445-2.01.158-.632 1.046-1.004 1.342-1.58.295-.58.067-1.5.487-2 .418-.499 1.381-.458 1.906-.857.517-.393.719-1.32 1.326-1.594.587-.268 1.437.178 2.097.042.66-.139 1.252-.885 1.9-.876.67.01 1.237.776 1.872.929.644.154 1.509-.266 2.097.023.59.29.764 1.22 1.275 1.632.508.41 1.474.396 1.881.91.4.507.147 1.418.427 2.013.272.577 1.149.975 1.29 1.622.14.648-.495 1.36-.505 1.997-.01.655.6 1.386.445 2.008-.158.634-1.046 1.005-1.34 1.582-.297.579-.07 1.5-.49 2-.417.499-1.38.46-1.906.857-.517.393-.717 1.32-1.324 1.594-.59.267-1.438-.18-2.099-.041-.66.136-1.25.884-1.898.874-.67-.01-1.238-.776-1.873-.928-.645-.155-1.509.266-2.096-.023-.592-.29-.766-1.222-1.276-1.632-.51-.41-1.474-.396-1.881-.91-.4-.507-.146-1.418-.428-2.014-.27-.576-1.148-.974-1.289-1.622z"/>
        <path stroke="#F2AA33" stroke-linecap="round" stroke-linejoin="round" stroke-width="1.2" d="M7 10a6 6 0 1 1 12 0 6 6 0 0 1-12 0zM7.32 16.498l-2.807 6.306 3.476-1.233 1.517 3.363 2.707-6.092M18.31 16.675l2.73 6.129-3.477-1.233-1.517 3.363-2.406-5.96"/>
        <path fill="#F2AA33" d="M16.334 8.343l-.202-.188a.604.604 0 0 0-.808 0l-3.431 3.189-1.217-1.131a.604.604 0 0 0-.808 0l-.202.187a.506.506 0 0 0 0 .75l1.822 1.695a.605.605 0 0 0 .808 0l4.038-3.752a.507.507 0 0 0 0-.75"/>
    </g>
</svg>
