<svg xmlns="http://www.w3.org/2000/svg" width="20" height="20" viewBox="0 0 20 20">
    <g fill="none" fill-rule="evenodd">
        <rect width="18" height="18" x="1" y="1" fill="#E0645F" rx="9"/>
        <path fill="#FFF" d="M9.194 10.77L8.96 7.26a26.115 26.115 0 0 1-.066-1.472c0-.405.106-.721.319-.948.212-.227.492-.341.838-.341.42 0 .701.145.843.436.141.29.212.709.212 1.256 0 .322-.017.65-.051.981l-.315 3.611c-.034.43-.108.76-.22.989a.576.576 0 0 1-.557.344c-.263 0-.446-.11-.549-.333-.102-.222-.176-.56-.22-1.014zm.813 4.819c-.298 0-.558-.097-.78-.29-.222-.192-.333-.462-.333-.809 0-.303.106-.56.319-.772a1.06 1.06 0 0 1 .78-.32c.307 0 .57.107.787.32.217.212.326.47.326.772 0 .342-.11.61-.33.806-.22.195-.476.293-.769.293z"/>
    </g>
</svg>
