<svg xmlns="http://www.w3.org/2000/svg" width="20" height="20" viewBox="0 0 20 20">
    <g fill="none" fill-rule="evenodd">
        <path fill="#8CC9EF" d="M5.878 18.111c-.371.206-.8.426-1.29.65-1.451.661-2.172.781-3.033 1.037-.364.108-.61-.229-.42-.506.618-.906.895-1.241 1.273-2.305.144-.403.188-.87.19-1.344C1.286 14.099.5 12.137.5 10c0-4.97 4.253-9 9.5-9 5.246 0 9.5 4.03 9.5 9 0 4.971-4.254 9-9.5 9a9.903 9.903 0 0 1-4.122-.889z"/>
        <path stroke="#FFF" stroke-linecap="round" stroke-width="1.6" d="M6.05 8H11M6.05 11.5H14"/>
    </g>
</svg>
