<svg xmlns="http://www.w3.org/2000/svg" width="20" height="20" viewBox="0 0 20 20">
    <g fill="#BBC7D2" fill-rule="evenodd">
        <path d="M10.621 7.201a3.044 3.044 0 0 0-.652-.073 2.971 2.971 0 0 0-3 3.001c0 .412.08.801.225 1.155l3.427-4.083zM9.594 13.092c.124.015.246.036.375.036a2.97 2.97 0 0 0 2.855-3.886l-3.23 3.85z"/>
        <path d="M18.305 9.797c-.59-1.489-1.6-2.742-2.848-3.692l-1.153 1.374c.929.689 1.696 1.585 2.186 2.649-1.133 2.467-3.708 4.1-6.521 4.1a7.17 7.17 0 0 1-1.23-.117L7.44 15.658c.81.236 1.659.37 2.528.37 3.669 0 7.019-2.238 8.336-5.569l.13-.331-.13-.331zM4.666 14.297l1.158-1.38c-1.017-.704-1.855-1.652-2.378-2.789 1.133-2.467 3.709-4.1 6.523-4.1.509 0 1.005.071 1.49.173l1.284-1.529a9.03 9.03 0 0 0-2.774-.444c-3.67 0-7.021 2.238-8.338 5.569l-.131.331.131.331c.619 1.565 1.697 2.874 3.035 3.838M16.253 3.233a1 1 0 0 1 .123 1.41L6.092 16.898a1 1 0 1 1-1.532-1.285L14.844 3.357a1 1 0 0 1 1.409-.124"/>
    </g>
</svg>
