<svg xmlns="http://www.w3.org/2000/svg" width="20" height="20" viewBox="0 0 20 20">
    <g fill="#BBC7D2" fill-rule="evenodd">
        <path d="M3.446 9.9C4.58 12.367 7.156 14 9.968 14c2.813 0 5.388-1.633 6.521-4.1-1.133-2.467-3.708-4.1-6.52-4.1-2.814 0-5.39 1.633-6.523 4.1m6.522 5.9c-3.669 0-7.02-2.238-8.337-5.569l-.13-.33.13-.332C2.948 6.24 6.3 4 9.968 4c3.67 0 7.02 2.238 8.336 5.57l.131.33-.13.331c-1.318 3.331-4.668 5.57-8.337 5.57"/>
        <path d="M9.969 12.9a2.971 2.971 0 0 1-3.001-3c0-1.68 1.32-3 3-3a2.97 2.97 0 0 1 3 3c0 1.68-1.32 3-3 3m1.5-3c.56 0 1-.44 1-1s-.44-1-1-1a.99.99 0 0 0-1 1c0 .56.44 1 1 1"/>
    </g>
</svg>
