<svg xmlns="http://www.w3.org/2000/svg" width="20" height="20" viewBox="0 0 20 20">
    <g fill="none" fill-rule="evenodd">
        <rect width="18" height="18" x="1" y="1" fill="#BBC7D2" rx="9"/>
        <path fill="#FFF" d="M10.785 13.317A1.056 1.056 0 0 0 10.01 13c-.31 0-.575.106-.788.316-.214.21-.322.473-.322.78 0 .346.113.619.336.815.22.192.481.289.774.289a1.1 1.1 0 0 0 .757-.294c.221-.197.332-.47.332-.81 0-.307-.105-.569-.314-.779M12.818 6.285a2.664 2.664 0 0 0-1.087-.942C11.267 5.116 10.727 5 10.125 5c-.65 0-1.227.138-1.715.411-.489.273-.867.623-1.123 1.041-.257.419-.387.84-.387 1.251 0 .217.088.42.263.602a.865.865 0 0 0 .648.276c.435 0 .733-.261.882-.772.142-.432.314-.762.516-.982.191-.208.5-.313.916-.313.358 0 .642.103.868.315.222.211.332.462.332.768a.851.851 0 0 1-.108.426 1.654 1.654 0 0 1-.276.373c-.111.115-.295.285-.56.521a10.03 10.03 0 0 0-.715.696c-.183.201-.33.438-.44.702-.11.268-.166.585-.166.944 0 .305.083.541.246.701a.84.84 0 0 0 .605.24c.454 0 .739-.252.824-.727.044-.2.077-.341.1-.42a1.119 1.119 0 0 1 .26-.473 3.89 3.89 0 0 1 .324-.331c.5-.455.851-.785 1.044-.978.2-.199.375-.439.518-.712.148-.278.222-.607.222-.974 0-.466-.129-.904-.385-1.3"/>
    </g>
</svg>
